HIERARCHY
ROOT Hips
{
 OFFSET 0.000000 0.000000 0.000000
 CHANNELS 6 Xposition Yposition Zposition Yrotation Xrotation Zrotation
 JOINT Chest
 {
  OFFSET 0.000000 9.588913 -0.003946
  CHANNELS 3 Yrotation Xrotation Zrotation
  JOINT Chest2
  {
   OFFSET 0.000000 9.541882 0.008053
   CHANNELS 3 Yrotation Xrotation Zrotation
   JOINT Chest3
   {
    OFFSET 0.000000 9.501360 0.000000
    CHANNELS 3 Yrotation Xrotation Zrotation
    JOINT Chest4
    {
     OFFSET 0.000000 9.491660 0.000000
     CHANNELS 3 Yrotation Xrotation Zrotation
     JOINT Neck
     {
      OFFSET 0.000000 14.331917 0.000000
      CHANNELS 3 Yrotation Xrotation Zrotation
      JOINT Head
      {
       OFFSET 0.000000 8.884799 0.017034
       CHANNELS 3 Yrotation Xrotation Zrotation
       End Site
       {
        OFFSET 0.000000 16.896195 0.008993
       }
      }
     }
     JOINT RightCollar
     {
      OFFSET -2.923010 9.499495 0.000000
      CHANNELS 3 Yrotation Xrotation Zrotation
      JOINT RightShoulder
      {
       OFFSET -13.795216 0.000000 0.000000
       CHANNELS 3 Yrotation Xrotation Zrotation
       JOINT RightElbow
       {
        OFFSET -30.272209 0.000000 0.000000
        CHANNELS 3 Yrotation Xrotation Zrotation
        JOINT RightWrist
        {
         OFFSET -24.478199 0.000000 0.000000
         CHANNELS 3 Yrotation Xrotation Zrotation
         End Site
         {
          OFFSET -18.090752 0.000000 0.000000
         }
        }
       }
      }
     }
     JOINT LeftCollar
     {
      OFFSET 2.923010 9.499495 0.000000
      CHANNELS 3 Yrotation Xrotation Zrotation
      JOINT LeftShoulder
      {
       OFFSET 13.795216 0.000000 0.000000
       CHANNELS 3 Yrotation Xrotation Zrotation
       JOINT LeftElbow
       {
        OFFSET 30.272209 0.000000 0.000000
        CHANNELS 3 Yrotation Xrotation Zrotation
        JOINT LeftWrist
        {
         OFFSET 24.478199 0.000000 0.000000
         CHANNELS 3 Yrotation Xrotation Zrotation
         End Site
         {
          OFFSET 18.090752 0.000000 0.000000
         }
        }
       }
      }
     }
    }
   }
  }
 }
 JOINT RightHip
 {
  OFFSET -7.826875 0.019532 0.001973
  CHANNELS 3 Yrotation Xrotation Zrotation
  JOINT RightKnee
  {
   OFFSET 0.000000 -40.546152 -0.001885
   CHANNELS 3 Yrotation Xrotation Zrotation
   JOINT RightAnkle
   {
    OFFSET 0.000000 -39.417092 -0.003189
    CHANNELS 3 Yrotation Xrotation Zrotation
    JOINT RightToe
    {
     OFFSET 0.000000 -7.579396 17.243563
     CHANNELS 3 Yrotation Xrotation Zrotation
     End Site
     {
      OFFSET 0.000000 -1.500329 6.694466
     }
    }
   }
  }
 }
 JOINT LeftHip
 {
  OFFSET 7.826875 0.019532 0.001973
  CHANNELS 3 Yrotation Xrotation Zrotation
  JOINT LeftKnee
  {
   OFFSET 0.000000 -40.546152 -0.001885
   CHANNELS 3 Yrotation Xrotation Zrotation
   JOINT LeftAnkle
   {
    OFFSET 0.000000 -39.417092 -0.003189
    CHANNELS 3 Yrotation Xrotation Zrotation
    JOINT LeftToe
    {
     OFFSET 0.000000 -7.579396 17.243563
     CHANNELS 3 Yrotation Xrotation Zrotation
     End Site
     {
      OFFSET 0.000000 -1.500329 6.694466
     }
    }
   }
  }
 }
}
MOTION
Frames: 13
Frame Time: 0.008333
0.000000 87.345680 0.000000 0.000000 -5.767889 0.000000 0.000000 11.653876 0.000000 0.000000 -5.885988 0.000000 0.000000 -0.000000 0.000000 0.000000 -0.000000 0.000000 0.000000 12.528808 0.000000 0.000000 0.711711 0.000000 0.000000 -0.000000 0.000000 0.000000 -0.000000 0.000000 2.309063 -0.000000 0.000000 -2.309063 -0.000000 -0.000000 0.000000 -0.000000 0.000000 0.000000 0.000000 0.000000 -2.309063 0.000000 0.000000 2.309063 -0.000000 0.000000 0.000000 8.520374 0.000000 0.000000 1.905768 0.000000 -0.000000 -4.658254 0.000000 0.000000 -0.000000 0.000000 0.000000 8.520374 0.000000 0.000000 1.905768 0.000000 -0.000000 -4.658254 0.000000 0.000000 -0.000000 0.000000
16.511212 89.212835 -1.862364 49.896020 -9.010557 -1.027148 0.886265 3.300600 0.732653 0.487176 1.888383 0.487973 0.611566 2.359819 0.612559 0.487176 1.888383 0.487973 9.785977 21.324551 -2.036542 11.358246 -2.343343 -4.537054 -1.889835 1.887765 -1.213579 4.863844 -3.985762 85.153750 6.950623 4.846364 2.394643 -0.808553 -4.541871 -0.858605 -3.378238 -0.051320 2.909125 0.710694 -1.996165 -90.378549 0.257516 -1.175940 0.734665 1.716251 -0.986565 -1.954016 -0.900871 9.366630 -0.058341 0.131997 7.530580 0.990220 5.661727 -7.153898 1.092518 0.005464 -0.165225 0.013939 -1.144727 8.880385 0.600577 -8.055380 5.660076 0.114833 -2.663957 -5.129199 -0.380746 0.017380 0.178581 0.029251
16.519875 89.213010 -1.865770 49.858831 -8.997914 -1.029779 0.878967 3.287813 0.732368 0.482663 1.880518 0.488668 0.605916 2.349993 0.613393 0.482663 1.880518 0.488668 9.710998 21.326833 -2.022055 11.265935 -2.350351 -4.501976 -1.886220 1.914415 -1.215476 4.859193 -3.974104 85.172639 6.925746 4.824522 2.373848 -0.808310 -4.538404 -0.858210 -3.360561 -0.045810 2.907257 0.639152 -2.042689 -90.363897 0.238132 -1.118035 0.755955 1.654587 -0.993001 -1.850436 -0.881749 9.352150 -0.059269 0.137687 7.531590 0.992296 5.666801 -7.151930 1.092292 0.004953 -0.164422 0.014920 -1.131375 8.891561 0.602969 -8.044868 5.625404 0.112286 -2.652325 -5.119981 -0.381005 0.015743 0.179657 0.030449
16.529991 89.213454 -1.869883 49.821595 -8.984974 -1.032357 0.871587 3.273647 0.731025 0.478412 1.872236 0.489166 0.600593 2.339646 0.613982 0.478412 1.872236 0.489166 9.638245 21.328491 -2.006698 11.176114 -2.357830 -4.466510 -1.885283 1.946272 -1.218362 4.847304 -3.969578 85.195515 6.900201 4.808062 2.351349 -0.806667 -4.538023 -0.854461 -3.340404 -0.033457 2.906184 0.574668 -2.094015 -90.349749 0.211137 -1.046748 0.781676 1.567675 -1.014818 -1.734268 -0.860152 9.336867 -0.060988 0.142981 7.534272 0.994044 5.670973 -7.150741 1.094220 0.005519 -0.164296 0.015189 -1.118325 8.904991 0.603860 -8.032171 5.586310 0.111554 -2.643193 -5.107541 -0.383314 0.014710 0.180300 0.033017
16.541403 89.214262 -1.874480 49.786563 -8.974431 -1.034535 0.864181 3.261359 0.728810 0.474333 1.865087 0.489608 0.595486 2.330715 0.614504 0.474333 1.865087 0.489608 9.566954 21.328481 -1.990906 11.087975 -2.367083 -4.430954 -1.893122 1.976166 -1.223614 4.836332 -3.971175 85.221770 6.873131 4.792740 2.328997 -0.805784 -4.537155 -0.850201 -3.325207 -0.022682 2.905740 0.520092 -2.145147 -90.339304 0.174885 -0.975988 0.811774 1.461956 -1.051170 -1.609706 -0.840870 9.324485 -0.064322 0.150779 7.537139 0.995013 5.674651 -7.149886 1.098104 0.006624 -0.164922 0.015189 -1.107351 8.921257 0.603333 -8.015616 5.546366 0.110465 -2.637134 -5.092750 -0.386993 0.013897 0.180227 0.037150
16.553683 89.215427 -1.879525 49.753049 -8.966794 -1.035882 0.857052 3.251615 0.726321 0.470468 1.859335 0.489997 0.590647 2.323530 0.614963 0.470468 1.859335 0.489997 9.497205 21.326112 -1.974528 11.001556 -2.378924 -4.395161 -1.911654 2.001851 -1.230893 4.829444 -3.978330 85.250301 6.847022 4.779345 2.306968 -0.806676 -4.536719 -0.849476 -3.315845 -0.016515 2.904830 0.474294 -2.191862 -90.333433 0.133377 -0.917537 0.843703 1.341729 -1.101357 -1.481342 -0.828165 9.316163 -0.070055 0.165485 7.538441 0.995504 5.677145 -7.148578 1.103123 0.007458 -0.165976 0.015252 -1.098085 8.939300 0.601082 -7.996393 5.508418 0.108244 -2.631459 -5.076860 -0.391947 0.013324 0.179475 0.042713
16.566265 89.216868 -1.885015 49.722412 -8.961135 -1.037172 0.848877 3.242963 0.723838 0.466023 1.854359 0.490448 0.585086 2.317315 0.615498 0.466023 1.854359 0.490448 9.430601 21.322377 -1.957214 10.918655 -2.392021 -4.359137 -1.933702 2.024488 -1.238523 4.820982 -3.988421 85.277722 6.825818 4.767905 2.287327 -0.808065 -4.538558 -0.852260 -3.307327 -0.010444 2.903062 0.433856 -2.235005 -90.329181 0.092545 -0.881815 0.867263 1.212755 -1.161722 -1.354122 -0.823839 9.310683 -0.077185 0.184801 7.538497 0.995152 5.680155 -7.146299 1.109073 0.007567 -0.167685 0.015188 -1.092894 8.958093 0.597126 -7.980322 5.472181 0.106168 -2.621156 -5.060001 -0.397467 0.012944 0.178554 0.047738
16.578666 89.218441 -1.891209 49.694170 -8.955228 -1.037857 0.838977 3.234469 0.721659 0.460477 1.849547 0.491016 0.578149 2.311307 0.616173 0.460477 1.849547 0.491016 9.368063 21.319362 -1.939804 10.840595 -2.403754 -4.324043 -1.952201 2.044405 -1.247199 4.807123 -4.000007 85.302024 6.808529 4.755746 2.270874 -0.807363 -4.541158 -0.856523 -3.295991 -0.001403 2.898035 0.398261 -2.279120 -90.322380 0.054415 -0.876296 0.877077 1.088622 -1.225307 -1.238555 -0.824337 9.306133 -0.085906 0.204252 7.535979 0.994416 5.685110 -7.142859 1.116032 0.007269 -0.169167 0.014698 -1.092353 8.975071 0.591159 -7.968121 5.437655 0.104244 -2.606372 -5.042234 -0.402194 0.012251 0.177678 0.050961
16.590602 89.220045 -1.898140 49.665341 -8.948199 -1.037567 0.827822 3.225682 0.720023 0.454103 1.844445 0.491777 0.570176 2.304938 0.617085 0.454103 1.844446 0.491777 9.309458 21.318551 -1.922973 10.767408 -2.412358 -4.290597 -1.964467 2.064051 -1.258651 4.784949 -4.014108 85.326091 6.793482 4.743673 2.256298 -0.804492 -4.545367 -0.862249 -3.281341 0.010232 2.889085 0.371275 -2.325169 -90.312714 0.018502 -0.896987 0.873388 0.977563 -1.289327 -1.141806 -0.823982 9.300959 -0.096090 0.224008 7.531381 0.995048 5.688981 -7.138854 1.122602 0.007240 -0.169891 0.014286 -1.093601 8.989848 0.583350 -7.957885 5.404105 0.103289 -2.589571 -5.023716 -0.406809 0.011225 0.176998 0.052796
16.601833 89.221640 -1.905492 49.636597 -8.940441 -1.038149 0.814574 3.216376 0.719278 0.446498 1.838972 0.492814 0.560667 2.298105 0.618336 0.446498 1.838972 0.492814 9.255246 21.319978 -1.906295 10.699507 -2.417773 -4.258433 -1.970370 2.084466 -1.271825 4.757614 -4.029776 85.352188 6.782570 4.730891 2.243939 -0.799789 -4.552138 -0.869047 -3.262052 0.022505 2.878178 0.356644 -2.369289 -90.301276 -0.016465 -0.935115 0.857416 0.879304 -1.350579 -1.062300 -0.819380 9.294033 -0.104486 0.242973 7.527793 0.996878 5.688151 -7.134536 1.127345 0.007813 -0.171032 0.014828 -1.095873 9.003220 0.575895 -7.950713 5.370953 0.103970 -2.571684 -5.005171 -0.411771 0.010260 0.177136 0.053258
16.612401 89.223203 -1.913400 49.612549 -8.931805 -1.039149 0.798067 3.207659 0.719949 0.436986 1.833753 0.494117 0.548774 2.291593 0.619911 0.436986 1.833753 0.494117 9.203924 21.322111 -1.890664 10.635336 -2.421931 -4.228175 -1.972399 2.102396 -1.285340 4.733474 -4.046071 85.377331 6.779511 4.713077 2.234360 -0.794007 -4.557691 -0.876013 -3.238194 0.031841 2.864817 0.350534 -2.412725 -90.288836 -0.047502 -0.984858 0.834610 0.791713 -1.403231 -0.998934 -0.810470 9.286130 -0.111106 0.253675 7.524352 0.998398 5.685633 -7.129734 1.130967 0.008822 -0.172476 0.016170 -1.101059 9.014190 0.568853 -7.943943 5.338749 0.104304 -2.556910 -4.986359 -0.414984 0.009512 0.177915 0.052132
16.622479 89.224757 -1.922024 49.594570 -8.922801 -1.039347 0.779604 3.200967 0.721915 0.426479 1.829661 0.495773 0.535642 2.286490 0.621924 0.426479 1.829661 0.495773 9.151749 21.322876 -1.876835 10.570671 -2.427662 -4.199739 -1.976097 2.114970 -1.297385 4.715874 -4.062844 85.396817 6.783559 4.692205 2.226515 -0.785792 -4.560750 -0.882581 -3.214894 0.036497 2.847897 0.348554 -2.459113 -90.275609 -0.071639 -1.038159 0.811980 0.709320 -1.445076 -0.949400 -0.799548 9.279089 -0.118351 0.256151 7.518835 0.999953 5.684153 -7.124464 1.133876 0.010109 -0.173363 0.018010 -1.109975 9.023408 0.560968 -7.935199 5.306759 0.103560 -2.546264 -4.966304 -0.417022 0.009232 0.178830 0.050827
16.634060 89.226354 -1.933167 49.574309 -8.916083 -1.021840 0.765076 3.197510 0.707211 0.417481 1.827303 0.497449 0.524398 2.283554 0.623971 0.417481 1.827303 0.497449 9.095804 21.321262 -1.862953 10.501603 -2.436589 -4.170326 -1.986764 2.122440 -1.306149 4.703599 -4.080250 85.410090 6.791896 4.673250 2.220899 -0.774130 -4.561644 -0.887507 -3.198932 0.037754 2.829625 0.348503 -2.510166 -90.262224 -0.087505 -1.086220 0.795177 0.624835 -1.478471 -0.905487 -0.788126 9.275378 -0.145296 0.258834 7.507255 1.002314 5.681314 -7.098159 1.137546 0.012649 -0.190627 0.020744 -1.118955 9.034797 0.533319 -7.923753 5.277463 0.103518 -2.537970 -4.971156 -0.419180 0.010597 0.202274 0.051499
